<svg xmlns="http://www.w3.org/2000/svg" width="165" height="41" fill="none"><path fill="#FF3011" stroke="#FF3011" stroke-width=".1" d="M8.028 16.363a2.39 2.39 0 0 0 2.073 3.585c.855 0 1.651-.457 2.077-1.195.32-.553.405-1.196.239-1.813v-.002a2.39 2.39 0 0 0-2.31-1.77 2.41 2.41 0 0 0-2.078 1.195Zm3.52 2.03a1.674 1.674 0 0 1-2.28.61 1.666 1.666 0 1 1 1.67-2.887 1.666 1.666 0 0 1 .611 2.276zm-.608 7.097h-.002a1.66 1.66 0 0 1-.833.226 1.666 1.666 0 1 1-.004-3.335 1.665 1.665 0 0 1 .838 3.11zm1.238-2.635a2.4 2.4 0 0 0-3.273-.875c-.554.318-.95.834-1.115 1.45a2.37 2.37 0 0 0 .239 1.814 2.4 2.4 0 0 0 2.077 1.196 2.387 2.387 0 0 0 2.072-3.585Zm3.558 2.049a2.397 2.397 0 0 0-2.396 2.392 2.396 2.396 0 0 0 4.792 0 2.397 2.397 0 0 0-2.396-2.392Zm0 4.057a1.67 1.67 0 0 1-1.67-1.665 1.67 1.67 0 0 1 3.34 0 1.67 1.67 0 0 1-1.67 1.665Zm0-10.545a2.396 2.396 0 0 0-2.396 2.39 2.397 2.397 0 0 0 4.792 0 2.395 2.395 0 0 0-2.396-2.39Zm0 4.056a1.67 1.67 0 0 1-1.67-1.667 1.67 1.67 0 0 1 3.34 0 1.67 1.67 0 0 1-1.67 1.667Zm0-10.546a2.397 2.397 0 0 0-2.396 2.39 2.396 2.396 0 0 0 4.792 0 2.397 2.397 0 0 0-2.396-2.39Zm0 4.055a1.67 1.67 0 0 1-1.67-1.665 1.67 1.67 0 0 1 3.34 0 1.67 1.67 0 0 1-1.67 1.665Z"/><path fill="#FF3011" d="M22.57 19.631a2.39 2.39 0 0 0 .877-3.263v-.002a2.405 2.405 0 0 0-3.272-.877 2.37 2.37 0 0 0-1.116 1.452 2.37 2.37 0 0 0 .238 1.814 2.4 2.4 0 0 0 3.273.876m-.365-.628a1.67 1.67 0 0 1-2.281-.61 1.666 1.666 0 0 1 1.445-2.5 1.666 1.666 0 0 1 .836 3.11"/><path stroke="#FF3011" stroke-width=".1" d="M22.817 16.727a1.677 1.677 0 0 0-2.281-.61 1.666 1.666 0 0 0 .836 3.11 1.666 1.666 0 0 0 1.445-2.5Zm0 0 .005-.004m-.252 2.908a2.39 2.39 0 0 0 .877-3.263v-.002a2.405 2.405 0 0 0-3.272-.877 2.37 2.37 0 0 0-1.116 1.452 2.37 2.37 0 0 0 .238 1.814 2.4 2.4 0 0 0 3.273.876Z"/><path fill="#FF3011" d="M19.924 23.215a1.673 1.673 0 0 1 2.282-.61 1.666 1.666 0 0 1-.837 3.11 1.67 1.67 0 0 1-1.445-2.5m-.63-.361a2.39 2.39 0 0 0 2.074 3.585c.854 0 1.65-.459 2.077-1.196.32-.553.405-1.196.238-1.813v-.005h-.002a2.395 2.395 0 0 0-2.31-1.767c-.854 0-1.65.459-2.077 1.196"/><path stroke="#FF3011" stroke-width=".1" d="M19.924 23.215a1.673 1.673 0 0 1 2.282-.61 1.666 1.666 0 0 1-.837 3.11 1.67 1.67 0 0 1-1.445-2.5Zm0 0-.005-.003m3.526 2.032a2.41 2.41 0 0 1-2.077 1.196 2.39 2.39 0 0 1-2.073-3.585 2.4 2.4 0 0 1 3.274-.875c.55.317.947.831 1.113 1.446v.005a2.36 2.36 0 0 1-.237 1.813Zm0 0-.005-.002"/><path fill="#FF3011" d="m21.051 3.48-.117-.014zm5.484 24.069.102.06-.1-.064v.003z"/><path fill="#FF3011" d="M28.145 11.004a15.97 15.97 0 0 0-7.38-5.147l.288-2.378a1.43 1.43 0 0 0-1.92-1.509l-1.045.388L16.992.656A1.43 1.43 0 0 0 15.788 0c-.489 0-.942.247-1.205.657L13.49 2.36l-1.046-.388a1.44 1.44 0 0 0-1.383.217 1.43 1.43 0 0 0-.536 1.294l.288 2.376a15.96 15.96 0 0 0-7.38 5.146A15.56 15.56 0 0 0 0 20.804C0 29.487 7.082 36.55 15.787 36.55c8.704 0 15.785-7.065 15.785-15.747 0-3.6-1.186-6.989-3.427-9.8m.245 12.117-.05-.01zl-.115-.023v.007l-.003.012-.002.013-.001.006v.003l-.002.004-.027.136v.002l.114.021h.002l-.116-.021-.027.138-.012.052-.023.108v.003l.113.023h.003l-.116-.023-.006.028-.045.189-.005.02v.009l-.004.01.113.033-.112-.033v.003l-.001.004-.023.09-.007.027v.003l-.002.004-.007.028V24l-.003.003-.013.053-.008.03-.07.255-.015.047-.033.108-.012.04-.013.042-.064.2v.003l-.002.002.112.033h.002l-.114-.033-.017.053.11.04-.11-.04v.002l-.033.097q-.018.049-.033.097l-.013.036-.012.036-.036.095-.055.149.11.042-.009-.003-.101-.039-.01.026q-.03.08-.064.16v.002l.106.042h.002l-.11-.043c-.273.681-.608 1.34-.995 1.96v.002l-.004.003.102.056-.103-.056-.015.024-.012.02.1.062-.102-.06-.007.01-.012.02-.08.123.1.064-.1-.063-.077.115.093.063h.002l-.095-.062a13 13 0 0 1-1.597 1.943 12.6 12.6 0 0 1-3.907 2.658l-.02.01h-.002l-.207.089h-.002l-.02.008c-.61.248-1.244.45-1.881.6l.027.115v-.006l-.027-.109a12.8 12.8 0 0 1-7.43-.473c-.021-.008-.057-.02-.086-.033l-.038-.014-.011-.005h-.003l-.019-.008-.125-.05-.038-.016h-.002l-.002-.002q-.043-.016-.084-.034h-.001l-.001-.002-.029-.011-.148-.064-.047.107v-.002l.047-.104-.13-.058a12.77 12.77 0 0 1-6.294-6.194v-.001l-.102.05h-.004l.106-.05-.05-.107-.015-.034-.107.05h.001l.106-.05-.066-.15-.108.046.108-.047-.057-.134q-.014-.03-.026-.062l-.026-.061-.013-.033a12.66 12.66 0 0 1-.115-9.256l-.11-.041.111.041.055-.141v-.003l.063-.161.012-.027-.108-.046h.003l.105.046v-.003q.023-.058.047-.11v-.002a12.72 12.72 0 0 1 6.2-6.49l-.05-.105.05.105.134-.064h.001a12.7 12.7 0 0 1 5.36-1.177 12.7 12.7 0 0 1 5.563 1.274 12.76 12.76 0 0 1 5.15 4.592 12.6 12.6 0 0 1 1.983 6.794v.206q0 .048-.002.089h.005-.006.053v.002h-.054l-.001.06q-.001.061-.004.12-.003.09-.01.187v.007l-.003.061-.002.037q0 .017-.002.026l.117.01h-.003l-.115-.01v.002l-.01.127q-.008.116-.018.228l-.007.08-.021.198-.009.07-.02.163.109.014-.11-.014-.025.184.102.014.015.003-.117-.017-.008.056-.036.226-.01.05-.019.108.116.023zm-.108-.02h-.003zM3.858 16.139h.002-.005z"/><path fill="#FF3011" d="m26.54 27.768-.1-.066v.002zm14.52 1.722a1.74 1.74 0 0 1-1.284.523c-.508 0-.932-.172-1.284-.522a1.74 1.74 0 0 1-.523-1.284V18.122c0-2.803.99-5.18 2.984-7.134s4.43-2.934 7.322-2.934 5.255.988 7.258 2.958q3.005 2.955 3.007 7.11v10.085q.002.758-.523 1.284a1.74 1.74 0 0 1-1.284.522c-.507 0-.931-.172-1.283-.522a1.74 1.74 0 0 1-.523-1.284V18.122c0-1.773-.645-3.302-1.945-4.569q-1.94-1.902-4.699-1.904c-1.837 0-3.497.63-4.773 1.88s-1.92 2.786-1.92 4.592v10.085c0 .506-.171.932-.523 1.284z"/><path fill="#FF3011" fill-rule="evenodd" d="M63.875 27.17c2.23 2.23 4.926 3.358 8.005 3.359h-.005.008-.003c3.251 0 5.995-1.186 8.176-3.53v1.805c-.025.433.115.81.417 1.12a1.57 1.57 0 0 0 2.222 0q.453-.453.491-1.103l.025-9.652c-.017-3.13-1.145-5.835-3.367-8.05-2.214-2.215-4.928-3.334-8.05-3.334s-5.827 1.12-8.026 3.342c-2.199 2.214-3.318 4.919-3.318 8.042.041 3.08 1.193 5.778 3.425 8zm2.263-13.672c1.553-1.57 3.457-2.362 5.64-2.362v.008c2.182 0 4.094.785 5.688 2.346s2.403 3.473 2.411 5.688c.008 2.19-.793 4.095-2.362 5.664-1.577 1.569-3.514 2.37-5.663 2.37s-4.054-.801-5.656-2.379c-1.593-1.569-2.403-3.48-2.403-5.671s.785-4.095 2.345-5.664" clip-rule="evenodd"/><path fill="#FF3011" d="M89.203 29.68a1.74 1.74 0 0 1-1.284.522 1.74 1.74 0 0 1-1.283-.523 1.74 1.74 0 0 1-.523-1.283V18.311c0-2.803.989-5.181 2.984-7.135 1.994-1.953 4.43-2.934 7.33-2.934.508 0 .932.171 1.284.523.351.351.522.776.522 1.267s-.172.924-.522 1.267a1.74 1.74 0 0 1-1.284.523c-1.87 0-3.456.637-4.748 1.904-1.299 1.266-1.945 2.794-1.945 4.567v10.085q.002.758-.523 1.284l-.008.016zm11.98-18.439q3.247-3.285 7.853-3.285c3.072 0 5.689 1.086 7.855 3.277s3.252 4.805 3.252 7.878-1.086 5.688-3.276 7.853q-3.275 3.25-7.813 3.252-4.303-.001-7.503-2.958v11.261c0 .507-.171.932-.522 1.284a1.74 1.74 0 0 1-1.284.522c-.507 0-.932-.171-1.283-.523a1.74 1.74 0 0 1-.523-1.283V19.118c0-3.065 1.087-5.688 3.252-7.878zm2.567 13.182c1.463 1.463 3.236 2.199 5.304 2.199s3.833-.736 5.304-2.199 2.199-3.236 2.199-5.304-.735-3.85-2.199-5.337c-1.463-1.496-3.236-2.239-5.304-2.239s-3.833.743-5.304 2.24c-1.463 1.487-2.199 3.268-2.199 5.336s.736 3.833 2.199 5.304m37.444 2.54q-3.247 3.25-7.853 3.252c-3.072 0-5.688-1.086-7.862-3.252q-3.262-3.248-3.261-7.853 0-4.607 3.261-7.855 3.263-3.25 7.862-3.252c3.065 0 5.687 1.086 7.853 3.252s3.253 4.781 3.253 7.855c0 3.073-1.087 5.688-3.253 7.853m-13.165-2.541c1.463 1.462 3.236 2.199 5.304 2.199s3.833-.735 5.304-2.2c1.471-1.462 2.197-3.235 2.197-5.303s-.735-3.841-2.197-5.312-3.237-2.206-5.304-2.206-3.833.743-5.304 2.239c-1.463 1.487-2.199 3.252-2.199 5.287s.736 3.833 2.199 5.304zm34.76-16.576c.615 0 1.143.175 1.572.531s.64.788.64 1.286-.219.937-.64 1.286c-.422.348-.957.53-1.572.53q-2.515-.002-4.337 1.501c-1.207 1.004-1.815 2.181-1.815 3.533v5.034q-.002 3.548-3.056 6.062c-2.042 1.675-4.513 2.513-7.431 2.513q-.927.002-1.572-.53c-.645-.532-.649-.789-.649-1.287s.22-.936.649-1.285.955-.531 1.572-.531q2.517.001 4.304-1.451c1.191-.962 1.782-2.132 1.782-3.484V16.52c0-2.397 1.037-4.445 3.104-6.136 2.067-1.692 4.555-2.538 7.449-2.538"/></svg>